<?xml version="1.0" encoding="utf-8"?>
<!-- Generator: Adobe Illustrator 15.0.0, SVG Export Plug-In . SVG Version: 6.00 Build 0)  -->
<!DOCTYPE svg PUBLIC "-//W3C//DTD SVG 1.1//EN" "http://www.w3.org/Graphics/SVG/1.1/DTD/svg11.dtd">
<svg version="1.1" id="Layer_1" xmlns="http://www.w3.org/2000/svg" xmlns:xlink="http://www.w3.org/1999/xlink" x="0px" y="0px"
	 width="26px" height="22px" viewBox="0 0 26 22" enable-background="new 0 0 26 22" xml:space="preserve">
<path fill-rule="evenodd" clip-rule="evenodd" fill="#1C9BFF" d="M1,9h24c0.552,0,1,0.448,1,1v2c0,0.553-0.448,1-1,1H1
	c-0.552,0-1-0.447-1-1v-2C0,9.448,0.448,9,1,9z"/>
<path fill-rule="evenodd" clip-rule="evenodd" fill="#1C9BFF" d="M1,0h24c0.552,0,1,0.448,1,1v2c0,0.552-0.448,1-1,1H1
	C0.448,4,0,3.552,0,3V1C0,0.448,0.448,0,1,0z"/>
<path fill-rule="evenodd" clip-rule="evenodd" fill="#1C9BFF" d="M1,18h24c0.552,0,1,0.447,1,1v2c0,0.553-0.448,1-1,1H1
	c-0.552,0-1-0.447-1-1v-2C0,18.447,0.448,18,1,18z"/>
</svg>
