<?xml version="1.0" encoding="utf-8"?>
<!-- Generator: Adobe Illustrator 15.0.0, SVG Export Plug-In . SVG Version: 6.00 Build 0)  -->
<!DOCTYPE svg PUBLIC "-//W3C//DTD SVG 1.1//EN" "http://www.w3.org/Graphics/SVG/1.1/DTD/svg11.dtd">
<svg version="1.1" id="Layer_1" xmlns="http://www.w3.org/2000/svg" xmlns:xlink="http://www.w3.org/1999/xlink" x="0px" y="0px"
	 width="43px" height="43px" viewBox="0 0 43 43" enable-background="new 0 0 43 43" xml:space="preserve">
<path fill="#FFFFFF" d="M23.747,13.021c-2.929-2.928-7.679-2.928-10.606,0c-2.929,2.929-2.929,7.679,0,10.607
	c2.929,2.929,7.678,2.929,10.606,0C26.675,20.7,26.675,15.951,23.747,13.021z M14.905,21.865c-1.955-1.954-1.954-5.125,0-7.079
	c1.954-1.955,5.125-1.955,7.079,0c1.954,1.955,1.954,5.125,0,7.079C20.03,23.82,16.859,23.82,14.905,21.865z"/>
<path fill="#FFFFFF" d="M31.764,29.76c0.391,0.393,0.391,1.023,0,1.415l-0.707,0.707c-0.392,0.392-1.023,0.392-1.414,0l-7.192-7.192
	c-0.392-0.392-0.392-1.022,0-1.414l0.707-0.707c0.391-0.392,1.022-0.392,1.413,0L31.764,29.76z"/>
</svg>
